<svg xmlns="http://www.w3.org/2000/svg" viewBox="0 0 800 800"><defs><style>.cls-1{fill:none;stroke:#000;stroke-linecap:round;stroke-miterlimit:10;stroke-width:0.5px;}.cls-2{font-size:242.81px;letter-spacing:-0.04em;}.cls-2,.cls-3,.cls-4{font-family:MongolianBaiti, Mongolian Baiti;}.cls-3{font-size:248.46px;letter-spacing:-0.06em;}.cls-4{font-size:197.64px;}.cls-5{letter-spacing:-0.06em;}</style></defs><g id="Layer_2" data-name="Layer 2"><path d="M685.23,518.48c.09-1.92.18-3.86.24-5.8,0,1.34.08,2.66.12,4,0,1.18,0,2.38.07,3.57s0,2.52.05,3.79c0,1.05,0,2.08,0,3.12s0,2.05,0,3.07c-1.61,169.35-122.76,74.2-278.16,74.2S121,699.59,119.22,530.24c0-1,0-2,0-3.07s0-2.07,0-3.12c0-1.27,0-2.52,0-3.79s0-2.39.08-3.57c0-1.35.07-2.67.11-4q.11,2.9.24,5.78c0,.36,0,.71,0,1.06.12,2.36.26,4.7.41,7.05C132.05,704.82,259,555,407.55,555s265.31,149.9,277.22-28.35q.24-3.51.41-7.07C685.2,519.2,685.22,518.85,685.23,518.48Z"/><polyline class="cls-1" points="119.46 512.68 402.47 103.39 685.47 512.68"/><polygon points="400.48 713.61 402.3 84.62 402.47 84.62 404.29 713.61 400.48 713.61"/><path d="M402.38,706.43,388,697.67l-.32.49,9.33,23.5,5.4,24.56q2.72-12.27,5.41-24.56l9.33-23.5-.24-.49Z"/><polygon points="400.4 86.25 383.58 76.53 383.58 71.98 400.4 81.69 400.4 77.14 383.58 67.43 383.58 62.88 400.4 72.59 400.4 68.04 383.58 58.33 383.58 53.78 400.4 63.49 400.4 58.84 404.37 58.84 404.37 63.49 421.19 53.78 421.19 58.33 404.37 68.04 404.37 72.59 421.19 62.88 421.19 67.43 404.37 77.14 404.37 81.69 421.19 71.98 421.19 76.53 404.37 86.25 400.4 86.25"/><text class="cls-2" transform="translate(141.65 517.73) scale(0.9 1)">P</text><text class="cls-3" transform="translate(1.47 364.25) scale(0.9 1)">A</text><text class="cls-4" transform="translate(157.11 326.31) scale(0.9 1)"><tspan class="cls-5">R</tspan><tspan x="119.95" y="0">TEMIS</tspan></text><text class="cls-4" transform="translate(253.79 520.71) scale(0.9 1)">RIME</text></g></svg>