<svg id="Layer_1" data-name="Layer 1" xmlns="http://www.w3.org/2000/svg" viewBox="0 0 200 200"><defs><style>.cls-1{fill:#fff;}</style></defs><path class="cls-1" d="M143.7,151.7a7.51,7.51,0,0,1-5.32-2.2L105.89,117a9,9,0,0,0-12.78,0L60.61,149.5a7.51,7.51,0,0,1-12.81-5.3,7.51,7.51,0,0,1,2.2-5.32l32.49-32.49a9,9,0,0,0,0-12.78L50,61.11A7.52,7.52,0,0,1,50,50.5a7.51,7.51,0,0,1,10.62,0L93.11,83a9,9,0,0,0,12.78,0l32.5-32.49a7.51,7.51,0,0,1,12.81,5.3,7.51,7.51,0,0,1-2.2,5.32L116.51,93.61a9,9,0,0,0,0,12.78L149,138.89a7.52,7.52,0,0,1,0,10.61A7.44,7.44,0,0,1,143.7,151.7Z"/><path d="M55.3,50.8a4.94,4.94,0,0,1,3.54,1.47l32.5,32.49a11.54,11.54,0,0,0,16.32,0l32.49-32.49a5,5,0,0,1,7.08,0,5,5,0,0,1,0,7.07l-32.49,32.5a11.54,11.54,0,0,0,0,16.32l32.49,32.49a5,5,0,0,1,0,7.08,5,5,0,0,1-7.07,0l-32.5-32.49a11.54,11.54,0,0,0-16.32,0L58.85,147.73a5,5,0,0,1-7.08,0,5,5,0,0,1,0-7.07l32.49-32.5a11.54,11.54,0,0,0,0-16.32L51.77,59.35a5,5,0,0,1,0-7.08A4.94,4.94,0,0,1,55.3,50.8m0-5a10,10,0,0,0-7.07,17.08l32.5,32.5a6.54,6.54,0,0,1,0,9.24l-32.5,32.5a10,10,0,0,0,14.15,14.15l32.5-32.5a6.54,6.54,0,0,1,9.24,0l32.5,32.5a10,10,0,0,0,14.15-14.15l-32.5-32.5a6.54,6.54,0,0,1,0-9.24l32.5-32.5a10,10,0,0,0-14.15-14.15l-32.5,32.5a6.54,6.54,0,0,1-9.24,0l-32.5-32.5A10,10,0,0,0,55.3,45.8Z"/></svg>