<svg id="Layer_1" data-name="Layer 1" xmlns="http://www.w3.org/2000/svg" viewBox="0 0 750 500"><defs><style>.cls-1{fill:#001489;}.cls-2{fill:#fff;}.cls-3{fill:#ffce00;}</style></defs><rect class="cls-1" x="-2" width="752" height="500"/><rect class="cls-2" x="-2" y="100" width="752" height="100"/><rect class="cls-2" x="-2" y="300" width="752" height="100"/><polygon class="cls-3" points="480.04 422.14 505.66 430.34 483.57 445.69 483.69 472.59 462.26 456.32 436.71 464.75 445.56 439.35 429.65 417.65 456.55 418.22 472.27 396.38 480.04 422.14"/><polygon class="cls-3" points="544.33 359.52 570.97 355.79 557.72 379.2 569.5 403.39 543.14 398.03 523.77 416.71 520.73 389.98 496.98 377.33 521.46 366.18 526.15 339.68 544.33 359.52"/><polygon class="cls-3" points="575.07 275.2 597.46 260.29 595.69 287.13 616.79 303.81 590.72 310.42 581.37 335.65 567.03 312.89 540.15 311.8 557.36 291.12 550.09 265.22 575.07 275.2"/><polygon class="cls-3" points="566.2 185.9 579.89 162.74 589.94 187.7 616.2 193.57 595.57 210.84 598.1 237.62 575.3 223.34 550.61 234.02 557.15 207.93 539.36 187.75 566.2 185.9"/><polygon class="cls-3" points="519.45 109.29 521.74 82.48 541.63 100.61 567.83 94.51 556.73 119.02 570.63 142.05 543.9 139.07 526.28 159.41 520.85 133.06 496.07 122.6 519.45 109.29"/><polygon class="cls-3" points="444.09 60.55 434.53 35.4 460.31 43.11 481.27 26.24 481.9 53.14 504.42 67.86 479.04 76.78 472 102.74 455.67 81.36 428.8 82.69 444.09 60.55"/><polygon class="cls-3" points="355.05 49.33 335.52 30.83 362.09 26.58 373.66 2.29 385.9 26.25 412.58 29.74 393.58 48.79 398.5 75.24 374.51 63.06 350.88 75.91 355.05 49.33"/><polygon class="cls-3" points="269.96 77.86 244.34 69.66 266.43 54.31 266.31 27.41 287.74 43.68 313.29 35.25 304.44 60.66 320.35 82.35 293.45 81.78 277.73 103.62 269.96 77.86"/><polygon class="cls-3" points="205.68 140.48 179.03 144.21 192.28 120.8 180.5 96.61 206.86 101.97 226.22 83.29 229.27 110.02 253.02 122.67 228.54 133.82 223.85 160.32 205.68 140.48"/><polygon class="cls-3" points="174.93 224.79 152.54 239.72 154.31 212.87 133.21 196.19 159.28 189.58 168.63 164.35 182.97 187.11 209.85 188.2 192.64 208.88 199.91 234.78 174.93 224.79"/><polygon class="cls-3" points="183.8 314.1 170.11 337.26 160.06 312.3 133.8 306.43 154.43 289.16 151.9 262.38 174.7 276.66 199.39 265.98 192.85 292.07 210.64 312.26 183.8 314.1"/><polygon class="cls-3" points="230.55 390.71 228.26 417.51 208.37 399.39 182.17 405.49 193.27 380.98 179.37 357.95 206.1 360.93 223.72 340.59 229.15 366.94 253.93 377.4 230.55 390.71"/><polygon class="cls-3" points="305.91 439.45 315.47 464.6 289.69 456.89 268.73 473.76 268.1 446.86 245.58 432.14 270.96 423.22 278 397.26 294.33 418.64 321.2 417.31 305.91 439.45"/><polygon class="cls-3" points="394.95 450.67 414.48 469.17 387.91 473.42 376.34 497.71 364.1 473.75 337.42 470.26 356.42 451.21 351.5 424.76 375.49 436.94 399.12 424.09 394.95 450.67"/><path class="cls-3" d="M240,251.12v3.57h-2.91l-.25.26v9.28a22.06,22.06,0,0,1-11.38,3.11c-9.38,0-16.62-6.38-16.62-16.73,0-11,7.29-18,17.44-18a28,28,0,0,1,9.23,1.48v9.94h-.76l-3.32-6.17a9.75,9.75,0,0,0-6.12-2c-6.12,0-9.33,5.1-9.33,13.93,0,9.38,4,14.33,9.94,14.33a12.51,12.51,0,0,0,4.54-.67V255l-.25-.26h-4.08v-3.57Z"/><path class="cls-3" d="M243.55,250.31c0-10.61,7.39-17.65,17.08-17.65,9.29,0,15.76,6.32,15.76,16.83s-7,17.85-16.83,17.85C250.23,267.34,243.55,261,243.55,250.31Zm25.7-.05c0-8.83-3.52-14.39-9.18-14.39s-9.38,5-9.38,13.62c0,9.43,3.62,14.64,9.38,14.64S269.25,259.54,269.25,250.26Z"/><path class="cls-3" d="M281,263.16h3.83l.25-.26V237.25l-4.59-3.06v-.76h15.81v.76l-4.84,3.06V263h9.69l3.87-6.73h1v10.3H281Z"/><path class="cls-3" d="M310.56,263.16h3.83l.25-.26V237.25l-4.59-3.06v-.76h14.28c13.72,0,19.53,7,19.53,15.75,0,11.73-7.75,17.39-19.68,17.39H310.56ZM324,263c8.16,0,12.69-4.43,12.69-13.51,0-7.34-4.43-12.49-12.59-12.49H321v26Z"/><path class="cls-3" d="M374.11,256.27l-.16,10.3H348.1v-3.41h3.82l.26-.26V237.25l-4.59-3.06v-.76H373v10.3h-1L368.14,237h-9.59v10.5h5.92l.25-.25v-3.83H368V255.2h-3.27v-3.87l-.25-.26h-5.92V263H369l4.13-6.73Z"/><path class="cls-3" d="M414.29,233.43v.76l-4.59,3.06v29.32h-4.38l-18.26-25.14V262.9l.26.26h3.82v3.41H379.21v-3.41H383l.26-.26V237.25l-4.59-3.06v-.76h10.66l16.57,23.4V237.25l-4.59-3.06v-.76Z"/><path class="cls-3" d="M429.6,237.25,425,234.19v-.76h16.26v.76l-4.59,3.06,8.16,20.45h.21l8.26-20.45-4.59-3.06v-.76h13.21v.76l-4.59,3.06-12.75,29.32h-2.45Z"/><path class="cls-3" d="M464,263h3.82l.26-.25v-25.5l-4.59-3.06v-.76H479v.76l-4.59,3.06v25.5l.26.25h3.82v3.57H464Z"/><path class="cls-3" d="M483.45,264.69v-10h.87l3,5.71c2.34,2.55,4.48,3.47,7,3.47,3.16,0,5.15-1.48,5.15-4.28,0-2.3-1.43-4-7.39-7-5.46-2.7-8.47-5.71-8.47-10.45,0-5.87,4.69-9.49,11.07-9.49a17.37,17.37,0,0,1,8.26,2.14v9.59h-.76l-3.83-6.27a6.1,6.1,0,0,0-5-2,4.1,4.1,0,0,0-4.38,4.18c0,2.35,1.43,3.82,6.83,6.68,6.89,3.62,9,6.32,9,10.45,0,5.56-4,9.95-11.48,9.95A20.15,20.15,0,0,1,483.45,264.69Z"/><path class="cls-3" d="M541.18,263.16v3.41H528v-3.41H531l.26-.26-2.3-5.4H516.7l-2.09,5.4.26.26h3.06v3.41H507.57v-3.41h2.81l.25-.26,12.19-29.47h2.7l12.7,29.47.26.26ZM527.56,254l-4.84-11.42h-.25L518,254Z"/></svg>