<svg id="Layer_1" data-name="Layer 1" xmlns="http://www.w3.org/2000/svg" viewBox="0 0 500 500"><defs><style>.cls-1{fill:#001489;}.cls-2{fill:#fff;}.cls-3{fill:#ffce00;}</style></defs><rect class="cls-1" width="500" height="500"/><rect class="cls-2" y="100" width="500" height="100"/><rect class="cls-2" y="300" width="500" height="100"/><polygon class="cls-3" points="355.04 422.14 380.66 430.34 358.57 445.69 358.69 472.59 337.26 456.32 311.71 464.75 320.56 439.34 304.65 417.65 331.55 418.22 347.27 396.38 355.04 422.14"/><polygon class="cls-3" points="419.32 359.52 445.97 355.79 432.72 379.2 444.5 403.39 418.14 398.03 398.77 416.71 395.73 389.98 371.98 377.33 396.46 366.18 401.15 339.68 419.32 359.52"/><polygon class="cls-3" points="450.07 275.2 472.46 260.29 470.69 287.13 491.8 303.81 465.71 310.42 456.37 335.65 442.03 312.89 415.15 311.8 432.36 291.12 425.09 265.22 450.07 275.2"/><polygon class="cls-3" points="441.2 185.9 454.89 162.74 464.94 187.7 491.2 193.57 470.57 210.84 473.1 237.62 450.3 223.34 425.61 234.02 432.15 207.93 414.36 187.75 441.2 185.9"/><polygon class="cls-3" points="394.45 109.29 396.74 82.48 416.63 100.61 442.83 94.51 431.73 119.02 445.63 142.05 418.9 139.07 401.29 159.41 395.85 133.06 371.07 122.6 394.45 109.29"/><polygon class="cls-3" points="319.09 60.55 309.53 35.4 335.31 43.11 356.27 26.24 356.9 53.14 379.42 67.86 354.04 76.78 347 102.74 330.67 81.36 303.8 82.69 319.09 60.55"/><polygon class="cls-3" points="230.05 49.33 210.52 30.83 237.09 26.58 248.66 2.29 260.9 26.25 287.58 29.74 268.58 48.79 273.5 75.24 249.51 63.06 225.88 75.91 230.05 49.33"/><polygon class="cls-3" points="144.96 77.86 119.34 69.66 141.43 54.31 141.31 27.41 162.74 43.68 188.29 35.25 179.44 60.66 195.35 82.35 168.45 81.78 152.73 103.62 144.96 77.86"/><polygon class="cls-3" points="80.67 140.48 54.03 144.21 67.28 120.8 55.5 96.61 81.86 101.97 101.22 83.29 104.27 110.02 128.02 122.67 103.54 133.82 98.85 160.32 80.67 140.48"/><polygon class="cls-3" points="49.93 224.79 27.54 239.72 29.31 212.87 8.21 196.19 34.28 189.58 43.63 164.35 57.97 187.11 84.85 188.2 67.64 208.88 74.91 234.78 49.93 224.79"/><polygon class="cls-3" points="58.8 314.1 45.11 337.26 35.06 312.3 8.8 306.43 29.43 289.16 26.9 262.38 49.7 276.66 74.39 265.98 67.85 292.07 85.64 312.25 58.8 314.1"/><polygon class="cls-3" points="105.55 390.71 103.26 417.52 83.37 399.39 57.17 405.49 68.27 380.98 54.37 357.95 81.1 360.93 98.72 340.59 104.15 366.94 128.93 377.4 105.55 390.71"/><polygon class="cls-3" points="180.91 439.45 190.47 464.6 164.69 456.89 143.73 473.76 143.09 446.86 120.58 432.14 145.96 423.22 153 397.25 169.33 418.64 196.2 417.31 180.91 439.45"/><polygon class="cls-3" points="269.95 450.67 289.48 469.17 262.91 473.42 251.34 497.71 239.1 473.75 212.42 470.26 231.42 451.21 226.5 424.76 250.49 436.94 274.12 424.09 269.95 450.67"/><path class="cls-3" d="M115,251.12v3.57h-2.91l-.25.26v9.28a22.06,22.06,0,0,1-11.38,3.11c-9.38,0-16.62-6.38-16.62-16.73,0-11,7.29-18,17.44-18a28,28,0,0,1,9.23,1.48v9.94h-.76l-3.32-6.17a9.75,9.75,0,0,0-6.12-2c-6.12,0-9.33,5.1-9.33,13.93,0,9.38,4,14.33,9.94,14.33a12.51,12.51,0,0,0,4.54-.67V255l-.25-.26h-4.08v-3.57Z"/><path class="cls-3" d="M118.55,250.31c0-10.61,7.39-17.65,17.08-17.65,9.29,0,15.76,6.32,15.76,16.83s-7,17.85-16.83,17.85C125.23,267.34,118.55,261,118.55,250.31Zm25.7-.05c0-8.83-3.52-14.39-9.18-14.39s-9.38,5-9.38,13.62c0,9.43,3.62,14.64,9.38,14.64S144.25,259.54,144.25,250.26Z"/><path class="cls-3" d="M156,263.16h3.83l.25-.26V237.25l-4.59-3.06v-.76h15.81v.76l-4.84,3.06V263h9.69l3.87-6.73h1v10.3H156Z"/><path class="cls-3" d="M185.56,263.16h3.83l.25-.26V237.25l-4.59-3.06v-.76h14.28c13.72,0,19.53,7,19.53,15.75,0,11.73-7.75,17.39-19.68,17.39H185.56ZM199,263c8.16,0,12.69-4.43,12.69-13.51,0-7.34-4.43-12.49-12.59-12.49H196v26Z"/><path class="cls-3" d="M249.11,256.27l-.16,10.3H223.1v-3.41h3.82l.26-.26V237.25l-4.59-3.06v-.76H248v10.3h-1L243.14,237h-9.59v10.5h5.92l.25-.25v-3.83H243V255.2h-3.27v-3.87l-.25-.26h-5.92V263H244l4.13-6.73Z"/><path class="cls-3" d="M289.29,233.43v.76l-4.59,3.06v29.32h-4.38l-18.26-25.14V262.9l.26.26h3.82v3.41H254.21v-3.41H258l.26-.26V237.25l-4.59-3.06v-.76h10.66l16.57,23.4V237.25l-4.59-3.06v-.76Z"/><path class="cls-3" d="M304.6,237.25,300,234.19v-.76h16.26v.76l-4.59,3.06,8.16,20.45h.21l8.26-20.45-4.59-3.06v-.76h13.21v.76l-4.59,3.06-12.75,29.32h-2.45Z"/><path class="cls-3" d="M339,263h3.82l.26-.25v-25.5l-4.59-3.06v-.76H354v.76l-4.59,3.06v25.5l.26.25h3.82v3.57H339Z"/><path class="cls-3" d="M358.45,264.69v-10h.87l3,5.71c2.34,2.55,4.48,3.47,7,3.47,3.16,0,5.15-1.48,5.15-4.28,0-2.3-1.43-4-7.39-7-5.46-2.7-8.47-5.71-8.47-10.45,0-5.87,4.69-9.49,11.07-9.49a17.37,17.37,0,0,1,8.26,2.14v9.59h-.76l-3.83-6.27a6.1,6.1,0,0,0-5-2,4.1,4.1,0,0,0-4.38,4.18c0,2.35,1.43,3.82,6.83,6.68,6.89,3.62,9,6.32,9,10.45,0,5.56-4,9.95-11.48,9.95A20.15,20.15,0,0,1,358.45,264.69Z"/><path class="cls-3" d="M416.18,263.16v3.41H403v-3.41H406l.26-.26-2.3-5.4H391.7l-2.09,5.4.26.26h3.06v3.41H382.57v-3.41h2.81l.25-.26,12.19-29.47h2.7l12.7,29.47.26.26ZM402.56,254l-4.84-11.42h-.25L393,254Z"/></svg>