<svg id="Layer_1" data-name="Layer 1" xmlns="http://www.w3.org/2000/svg" viewBox="0 0 200 200"><defs><style>.cls-1{fill:#fff;}</style></defs><path class="cls-1" d="M38,43.5a7.5,7.5,0,0,1,0-15H163a7.5,7.5,0,0,1,0,15Z"/><path d="M163,31a5,5,0,0,1,0,10H38a5,5,0,0,1,0-10H163m0-5H38a10,10,0,0,0,0,20H163a10,10,0,0,0,0-20Z"/><path class="cls-1" d="M38,107.5a7.5,7.5,0,0,1,0-15H163a7.5,7.5,0,0,1,0,15Z"/><path d="M163,95a5,5,0,0,1,0,10H38a5,5,0,0,1,0-10H163m0-5H38a10,10,0,0,0,0,20H163a10,10,0,0,0,0-20Z"/><path class="cls-1" d="M38,171.5a7.5,7.5,0,0,1,0-15H163a7.5,7.5,0,0,1,0,15Z"/><path d="M163,159a5,5,0,0,1,0,10H38a5,5,0,0,1,0-10H163m0-5H38a10,10,0,0,0,0,20H163a10,10,0,0,0,0-20Z"/></svg>