<svg xmlns="http://www.w3.org/2000/svg" viewBox="0 0 957.13 710.84"><defs><style>.cls-1{isolation:isolate;}.cls-2{fill:#fff;}.cls-3{fill:#8e8e8e;}.cls-4{fill:#bcbcbc;}.cls-5{fill:#ddd;}.cls-6{fill:#ccc;}.cls-7{fill:none;stroke:#625449;stroke-miterlimit:10;stroke-width:2px;}.cls-8{fill:#6d5423;}.cls-9{fill:#8c6c33;}.cls-10{fill:#b58d3c;}.cls-11{fill:#998f76;}.cls-12{fill:#634c20;}.cls-13{fill:#6b5024;}.cls-14{fill:#84652f;}.cls-15{fill:#604920;}.cls-16{fill:#b7b7b6;}.cls-17{fill:#ededed;}.cls-18{fill:#c8c8c8;}.cls-19{fill:#c4c4c4;}.cls-20{fill:#c1c1c1;}.cls-21{fill:#bdbdbd;}.cls-22{fill:#b9b9b9;}.cls-23{fill:#b5b5b5;}.cls-24{fill:#b2b2b2;}.cls-25{fill:#aeaeae;}.cls-26{fill:#aaa;}.cls-27,.cls-49,.cls-50{fill:#fcfbf7;}.cls-27,.cls-39,.cls-49{mix-blend-mode:overlay;}.cls-28{fill:#fffffd;}.cls-29{fill:#f4f4f3;}.cls-30{fill:#eaeae8;}.cls-31{fill:#dfdfde;}.cls-32{fill:#d4d4d3;}.cls-33{fill:#cacac9;}.cls-34{fill:#bfbfbf;}.cls-35{fill:#b5b5b4;}.cls-36{fill:#afafaf;}.cls-37{fill:#095eba;}.cls-38{fill:#003476;}.cls-39,.cls-44{fill:#c6c6c6;}.cls-40{fill:#9e9e9e;}.cls-41{fill:#f4f4f4;}.cls-42{fill:#dddddb;}.cls-43{fill:#a3a3a3;}.cls-45{fill:#037ee8;}.cls-46{fill:#0871bf;}.cls-47{fill:#00599b;}.cls-48{fill:#35271a;}.cls-49{opacity:0.5;}.cls-51{fill:#dbdbdb;}.cls-52{fill:#efefef;}.cls-53{fill:#d8d8d8;}.cls-54{fill:#e0dcd3;}</style></defs><g class="cls-1"><g id="Layer_1" data-name="Layer 1"><polygon class="cls-2" points="957.13 340.54 957.13 710.84 673.09 710.84 672.29 698.83 671.76 690.85 666.43 610.86 666.43 610.79 659.56 507.62 659.09 500.57 659.09 500.56 658.14 486.47 658.14 486.44 657.78 480.99 653.65 419.03 652.81 406.41 651.9 392.68 651.43 385.63 650.97 378.75 659.05 377.74 661.2 377.47 668.98 376.5 669.89 376.39 670.87 376.27 672.34 376.08 675.82 375.65 684.58 374.56 689.39 373.96 694.11 373.37 698.37 372.83 701.34 372.46 701.35 372.46 702.95 372.26 709.4 371.46 712.25 371.1 716.58 370.56 721.33 369.97 721.36 369.97 726.19 369.36 730.24 368.86 732.17 368.62 734.79 368.29 740.17 367.62 743.38 367.22 743.89 367.15 754.22 365.86 757.6 365.44 768.25 364.11 771.23 363.74 771.27 363.74 781.7 362.44 782.29 362.36 784.85 362.04 786.64 361.82 786.82 361.8 795.4 360.73 800.16 360.13 805.49 359.47 809.12 359.01 809.78 358.93 813.69 358.44 822.92 357.29 827.28 356.75 836.76 355.56 839.7 355.2 840.52 355.09 840.89 355.05 842.81 354.81 847.87 354.18 847.88 354.18 850.61 353.83 854.5 353.35 857.71 352.95 860.92 352.55 861.54 352.47 864.53 352.1 868.17 351.64 878.38 350.37 881.76 349.95 892.25 348.64 894.25 348.39 895.35 348.25 957.13 340.54"/><polygon class="cls-3" points="808.97 132.55 808.26 132.77 788.65 138.9 787.31 139.32 779.07 141.89 760.98 147.54 744.11 152.81 729.09 157.5 713.98 162.22 708.42 163.96 700.31 161.5 685.84 157.1 712.31 148.85 713.98 148.33 744.36 138.87 760.98 133.69 765.85 132.18 787.14 125.54 787.34 125.48 787.49 125.48 788.65 125.86 808.97 132.55"/><path class="cls-4" d="M1857.12,717.55l-2-2-10.44-10.43-2.82-2.83-.29-.28-1.67-1.67V655.12l-15.44-16.37-6.56-7V460.12l-.79-.38-.89-.42-1.41-.67h0l-21.08-10.08-11.33-5.41-6.8-3.25h0L1756.78,431h0l-5.91-2.82-1.15.45-25.78,10-3.78,1.47-.11,0-15.2,5.93-25.09,9.77h0l-2.88,1.12v176.2l-4.58,3.38-21.42,15.79v51.83l-3.55,3.45-8.61,8.38-5.16,5-1.68,1.64v48.52l146.69,87.54.81.48,12.28,7.33,7.23,4.32h0l57.48,34.3h0l1.41.84V718.2Zm-122.95-87.34c0,4.58,0,16.67,0,31.78l-6.79,2.11-4.66,1.46-3.64,1.13a7.41,7.41,0,0,0-2.75.33v.52l-1.72.54h0l-1.74.54-17.61,5.49.18-60.59s1.55-31.09,17-31.09c11.7,0,18.1,17.71,20.54,33.57h0A96.31,96.31,0,0,1,1734.17,630.21Zm49.58,47,4.16,1.39,15.28,5.08v.76l.1,19.52-1.07.31c-4.77,1.36-9.59,2.75-14.31,4.12l-3.77,1.09-7.53,2.19-8.25-2.83V672.08Zm-49.6,28.14-12.87,4V673l12.88-4C1734.16,680.39,1734.15,693.08,1734.15,705.34Zm-17.82-30.84c0,11.83.08,33.6.09,36.36l-3.78,1.18-17.51-5.13.08-25.81Zm66.19-5-8.41-2.88-5.75-2V606.22c0-11.72,5.51-23.79,19.27-23.79s15.14,12.07,15.14,12.07l.15,32.27v2.05l.23,47.76Zm11.33-159.82-16.46-5.63c0-1.36,0-2.37,0-2.85,0-3.08,2.63-11.1,9.2-11.1s7.22,8,7.22,8Zm-86.42-12.56s.66-8,7.23-8,9.19,8,9.19,11.1v2.63L1707.23,508Z" transform="translate(-962.87 -369.16)"/><path class="cls-5" d="M1661.32,729.31s.85-.73,4.9,0v-44a7.55,7.55,0,0,0-5.21-.09C1661,692.26,1661.32,729.31,1661.32,729.31Z" transform="translate(-962.87 -369.16)"/><path class="cls-6" d="M1752.15,663.31l-2.46.77-.89.28-1.88.59h0l-2.94.92-9.81,3.06-12.88,4-5,1.54-21.12,6.6-1.46.46-5.07,1.58-16.41,5.13-6,1.89-5.18,1.62-8.48,2.66h0l-1.7.53-5.32,1.66a7.81,7.81,0,0,1-4.34.09h0l-.26-.07-3.1-.95c-7.36-2.24-7.39-1.4,0-3.69l13.08-4.07,21.42-6.68,16.39-5.1.62-.2h0l5.91-1.84,21.08-6.57,2.75-.85,15.09-4.7,2.26-.71,7.55-2.35.61-.19,4.22,0h.73l.16.05,2.57.84C1759.48,662.05,1759.4,661.05,1752.15,663.31Z" transform="translate(-962.87 -369.16)"/><path class="cls-5" d="M1783.74,676.47c1.21-.37,2.72.08,4.17-1.13v44.3c-1.53-.56-3,.7-3.66.7C1784.25,717,1783.74,676.47,1783.74,676.47Z" transform="translate(-962.87 -369.16)"/><path class="cls-5" d="M1755.82,663.09c1.81-.56,3.78.08,4.51-.53v44.19a5.66,5.66,0,0,0-4.26.35C1756.07,705.42,1755.82,663.09,1755.82,663.09Z" transform="translate(-962.87 -369.16)"/><path class="cls-5" d="M1801.84,684.69a6.16,6.16,0,0,0,3.84-1.74v44.41c-.76-.28-2.1,1-3.07,1C1802.61,723.37,1801.84,684.69,1801.84,684.69Z" transform="translate(-962.87 -369.16)"/><path class="cls-5" d="M1820,688.6a6.17,6.17,0,0,0,3.83-1.74v44.41c-.76-.28-2.1,1.06-3.07,1.06C1820.72,727.28,1820,688.6,1820,688.6Z" transform="translate(-962.87 -369.16)"/><path class="cls-6" d="M1858.22,697.53c-.6.19-1.35.41-2.27.67h0l-1.81.49-.88.24a4.89,4.89,0,0,1-.74.16h0a7.7,7.7,0,0,1-3.78-.28l-8.86-2.95-3.2-1.07h0l-5.78-1.92-3.76-1.25-2.69-.89L1813.34,687l-10.15-3.37-34.83-11.59-8-2.67-4.49-1.49-6.15-2-.89-.3-1.88-.62h0l-2.94-1-2.58-.86a34.52,34.52,0,0,1-5-1.83c-1.22-.75.51-1.19,5.13-2.62l2.42-.75q.29-.09.57-.15a3.85,3.85,0,0,1,.47-.08l.23,0,.41,0c.24,0,.47,0,.7,0a7,7,0,0,1,.91.06l.6.09h.06l.18,0,.12,0,.14,0,.44.12.89.3,18.67,6.39,34.8,11.91,21.25,7.28,15.44,5.28,8.82,3,5.93,2,1.82.63h0C1860.36,696.2,1860.9,696.65,1858.22,697.53Z" transform="translate(-962.87 -369.16)"/><path class="cls-6" d="M1752.15,717.9l-2.46.77-2.76.86h0l-4.2,1.32-8.58,2.68h0l-2.34.73-.53.17-10.76,3.36-3.3,1-10.41,3.25-3.69,1.16-8,2.5h0l-1.94.6-4,1.26-9.62,3-4.34,1.35-2.84.89-1.85.58-4.6,1.44-4.58,1.43-9,2.81-4.77,1.49-2,.61a7.87,7.87,0,0,1-4.61,0l-.33-.1-2.77-.84a7.81,7.81,0,0,1,0-14.93l9.63-3,4.86-1.51,9-2.79.09,0,4.51-1.41.4-.12,6-1.89,2.89-.9,4.29-1.33,9.41-2.94.31-.09,3.94-1.23.64-.2,1.35-.42,7.11-2.21,1-.31,2.75-.86h0l6.69-2.08,3.78-1.18,4.86-1.51,12.87-4,5.71-1.78,4.72-1.47,4.15,0h.8l.16,0,2.57.84a7.69,7.69,0,0,1,2,1,7.45,7.45,0,0,1,2.49,2.82A7.82,7.82,0,0,1,1752.15,717.9Z" transform="translate(-962.87 -369.16)"/><path class="cls-6" d="M1744.6,782.77l-104-31.64a7.81,7.81,0,0,1,.38-15l.28-.07a7.74,7.74,0,0,1,4.08.08l106,31a7.81,7.81,0,0,1,.24,14.92l-2,.66Z" transform="translate(-962.87 -369.16)"/><path class="cls-6" d="M1744.19,782.83l-.48-.15a7.81,7.81,0,0,1,.22-15l103-28.63a7.82,7.82,0,0,1,4.21,0h0a7.81,7.81,0,0,1,0,15l-102.48,28.78A7.77,7.77,0,0,1,1744.19,782.83Z" transform="translate(-962.87 -369.16)"/><path class="cls-6" d="M1858.22,750.6a4.51,4.51,0,0,1-.45.53,7.16,7.16,0,0,1-2,1.52,7.84,7.84,0,0,1-1.6.63l-.88.24a7.15,7.15,0,0,1-1.12.22,7.79,7.79,0,0,1-3.42-.34l-4.08-1.36-2.89-1-10.7-3.56-3.31-1.1-3.32-1.11h0l-7-2.34-3.7-1.23-9.91-3.3-.31-.1-3.74-1.24-9.56-3.19-4.34-1.44-9.25-3.08-4.57-1.52-3.63-1.21-5.33-1.77-.59-.2-.73-.24-12-4-1.81-.6-1-.32h0l-5.53-1.84a7.79,7.79,0,0,1,.16-14.87l2.42-.75a7.81,7.81,0,0,1,4.76,0h0l.06,0,.89.3,4.6,1.58,1.76.6,4.28,1.47,8,2.74,8.25,2.83,13.35,4.57.19.06,1.09.38,8.36,2.86,3.77,1.29.39.13,9.74,3.33.29.1,3.58,1.23.11,0,6.93,2.37,3.1,1.06.25.08h0l3.1,1.05.18.07,10.46,3.58,3.13,1.07,10,3.41a6.48,6.48,0,0,1,.93.39,7.4,7.4,0,0,1,2.24,1.6c.16.17.31.34.45.52A8,8,0,0,1,1858.22,750.6Z" transform="translate(-962.87 -369.16)"/><line class="cls-7" x1="803.7" y1="247.55" x2="842.43" y2="258.28"/><path class="cls-8" d="M1775.3,648.3l19,4.94c2.67.7,4.32-2.86,2.93-6.31a17.31,17.31,0,0,0-1.21-2.45c-3.18-5.43-6.48-6.54-6.74-10.19s-4.49-11.65-4.49-11.65-4.24,5.8-4.5,9.31-3.55,2.92-6.74,6.69a10.38,10.38,0,0,0-1.2,1.82C1771,643.19,1772.64,647.61,1775.3,648.3Z" transform="translate(-962.87 -369.16)"/><path class="cls-9" d="M1775.3,648.3l4.51,1.17c-1.82-.47-2.82-4.91-3.32-6.23s3.61-6.31,5.22-7.34,3.11-13.26,3.11-13.26-4.24,5.8-4.5,9.31-3.55,2.92-6.74,6.69a10.38,10.38,0,0,0-1.2,1.82C1771,643.19,1772.64,647.61,1775.3,648.3Z" transform="translate(-962.87 -369.16)"/><path class="cls-10" d="M1782.61,650.2a2.85,2.85,0,0,0,2.21,2.45l.22.05h0c1.12.19,2-.38,2-1.35Z" transform="translate(-962.87 -369.16)"/><path class="cls-8" d="M1783.06,650.32a2.83,2.83,0,0,0,2,2.38h0c1.12.19,2-.38,2-1.35Z" transform="translate(-962.87 -369.16)"/><line class="cls-7" x1="842.43" y1="258.89" x2="803.7" y2="271.51"/><path class="cls-8" d="M1796.57,665.22l-19,5.82c-2.67.82-4.32-3.36-2.93-7.43a22,22,0,0,1,1.21-2.88c3.18-6.39,6.48-7.7,6.74-12s4.49-13.72,4.49-13.72,4.24,6.83,4.5,11,3.55,3.43,6.74,7.87a12.34,12.34,0,0,1,1.2,2.14C1800.89,659.22,1799.23,664.41,1796.57,665.22Z" transform="translate(-962.87 -369.16)"/><path class="cls-9" d="M1796.57,665.22l-4.51,1.38c1.82-.55,2.82-5.78,3.32-7.33s-3.61-7.43-5.22-8.64-3.11-15.61-3.11-15.61,4.24,6.83,4.5,11,3.55,3.43,6.74,7.87a12.34,12.34,0,0,1,1.2,2.14C1800.89,659.22,1799.23,664.41,1796.57,665.22Z" transform="translate(-962.87 -369.16)"/><path class="cls-10" d="M1789.26,667.46a3.26,3.26,0,0,1-2.21,2.89l-.22,0h0a1.55,1.55,0,0,1-2-1.59Z" transform="translate(-962.87 -369.16)"/><path class="cls-8" d="M1788.81,667.6a3.26,3.26,0,0,1-2,2.8h0a1.55,1.55,0,0,1-2-1.59Z" transform="translate(-962.87 -369.16)"/><path class="cls-2" d="M1817.85,547.72l-68.16,19.45V766.71l.08,0h0l8.33-2.39,4.92-1.41,8.93-2.56,4.6-1.32,9.3-2.66,4.29-1.23,9.65-2.76,4-1.14,10-2.85,3.64-1,6.23-1.79.23-.07.46-.13.11,0h0V545.85Zm-34.1,129.48,4.16,1.39,15.28,5.08v.76l.1,19.52-1.07.31c-4.77,1.36-9.59,2.75-14.31,4.12l-3.77,1.09-7.53,2.19-8.25-2.83V672.08Zm-1.23-7.68-8.41-2.88-5.75-2V606.22c0-11.72,5.51-23.79,19.27-23.79s15.14,12.07,15.14,12.07l.15,32.27v2.05l.23,47.76Z" transform="translate(-962.87 -369.16)"/><polygon class="cls-6" points="840.32 314.51 805.49 302.92 805.49 295.51 840.29 307.42 840.32 314.51"/><path class="cls-11" d="M1803.51,750.81l-3.72,1.07-9.64,2.77-4.29,1.23-9.3,2.67-4.6,1.32-2.87.82-.37.11-.36.1V708.83l8.25,2.83c8.43-2.45,17.67-5.14,26.68-7.71l0,8.41v.78l0,7.68.08,17.52Z" transform="translate(-962.87 -369.16)"/><path class="cls-5" d="M1758.3,724.55s.54.67,4.73-.41v54.62a5.5,5.5,0,0,1-5,.32C1758.07,767.9,1758.3,724.55,1758.3,724.55Z" transform="translate(-962.87 -369.16)"/><path class="cls-5" d="M1772,720.91s.55.59,4.56-.77v54.67a5.14,5.14,0,0,1-4.61.52C1772,764.56,1772,720.91,1772,720.91Z" transform="translate(-962.87 -369.16)"/><path class="cls-5" d="M1785.77,717.27s.55.51,4.38-1.12v54.69a4.73,4.73,0,0,1-4.26.73C1785.89,761.21,1785.77,717.27,1785.77,717.27Z" transform="translate(-962.87 -369.16)"/><path class="cls-5" d="M1799.56,713.62s.56.43,4.2-1.48v54.74a4.41,4.41,0,0,1-3.9.92C1799.86,757.86,1799.56,713.62,1799.56,713.62Z" transform="translate(-962.87 -369.16)"/><path class="cls-5" d="M1813.35,710s.57.35,4-1.83V762.9a4.14,4.14,0,0,1-3.54,1.13C1813.83,754.5,1813.35,710,1813.35,710Z" transform="translate(-962.87 -369.16)"/><path class="cls-5" d="M1827.19,706.25s.57.26,3.85-2.19v54.81s-1.5,1.67-3.19,1.33C1827.85,751.08,1827.19,706.25,1827.19,706.25Z" transform="translate(-962.87 -369.16)"/><path class="cls-5" d="M1841,702.59s.59.19,3.68-2.54v54.84s-1.35,1.71-2.84,1.54C1841.79,747.72,1841,702.59,1841,702.59Z" transform="translate(-962.87 -369.16)"/><path class="cls-5" d="M1647.51,753.73s.55-.68,4.75.42V698.62a5.49,5.49,0,0,0-5-.33C1647.28,709.67,1647.51,753.73,1647.51,753.73Z" transform="translate(-962.87 -369.16)"/><path class="cls-5" d="M1661.26,757.43s.54-.6,4.56.78V702.64a5.07,5.07,0,0,0-4.62-.53C1661.2,713.06,1661.26,757.43,1661.26,757.43Z" transform="translate(-962.87 -369.16)"/><path class="cls-5" d="M1633.77,747.85s.54-.73,4.92.06V694.58a6.13,6.13,0,0,0-5.33-.12C1633.36,705.79,1633.77,747.85,1633.77,747.85Z" transform="translate(-962.87 -369.16)"/><path class="cls-5" d="M1688.87,720.23s1.16-.86,4.88,0v-44a7.86,7.86,0,0,0-5.09-.08C1688.66,680.81,1688.87,720.23,1688.87,720.23Z" transform="translate(-962.87 -369.16)"/><path class="cls-6" d="M1719.07,666.69l-2.75.85V667A7.41,7.41,0,0,1,1719.07,666.69Z" transform="translate(-962.87 -369.16)"/><path class="cls-6" d="M1721.28,673v38.2c-3.39-1-4.86,0-4.86,0v-.29c0-2.76-.06-24.53-.09-36.36Z" transform="translate(-962.87 -369.16)"/><path class="cls-5" d="M1854.71,699s.6.11,3.51-2.91V751.2S1857,753,1855.73,753C1855.73,744.61,1854.71,699,1854.71,699Z" transform="translate(-962.87 -369.16)"/><path class="cls-5" d="M1744,657.91v44.16s1.78-1.12,4.83,0V658A8.73,8.73,0,0,0,1744,657.91Z" transform="translate(-962.87 -369.16)"/><line class="cls-7" x1="771.51" y1="246.49" x2="732.77" y2="256.78"/><path class="cls-12" d="M1705.49,650.73l19-4.75c2.67-.66,4.32-4.9,2.93-7.53a8.67,8.67,0,0,0-1.21-1.74c-3.18-3.63-6.48-3.05-6.74-6.43s-4.49-8.95-4.49-8.95-4.24,7.69-4.5,11.2-3.55,4.57-6.74,9.78a18.7,18.7,0,0,0-1.2,2.35C1701.17,648,1702.83,651.39,1705.49,650.73Z" transform="translate(-962.87 -369.16)"/><path class="cls-13" d="M1705.49,650.73l4.51-1.13c-1.82.46-2.82-3.31-3.32-4.33s3.61-7.86,5.22-9.65,3.11-14.29,3.11-14.29-4.24,7.69-4.5,11.2-3.55,4.57-6.74,9.78a18.7,18.7,0,0,0-1.2,2.35C1701.17,648,1702.83,651.39,1705.49,650.73Z" transform="translate(-962.87 -369.16)"/><path class="cls-14" d="M1712.8,648.91c0,1,1,1.55,2.21,1.25l.23-.07h0a2.73,2.73,0,0,0,2-2.29Z" transform="translate(-962.87 -369.16)"/><path class="cls-15" d="M1713.25,648.79c0,.93.87,1.48,2,1.3h0a2.73,2.73,0,0,0,2-2.29Z" transform="translate(-962.87 -369.16)"/><line class="cls-7" x1="732.54" y1="258.89" x2="771.28" y2="271.51"/><path class="cls-12" d="M1724.3,671l-19-5.81c-2.67-.82-4.32-6-2.93-9.23a11.21,11.21,0,0,1,1.21-2.14c3.18-4.44,6.48-3.73,6.74-7.87s4.49-11,4.49-11,4.24,9.42,4.5,13.72,3.56,5.6,6.74,12a23.31,23.31,0,0,1,1.2,2.88C1728.62,667.68,1727,671.86,1724.3,671Z" transform="translate(-962.87 -369.16)"/><path class="cls-13" d="M1724.3,671l-4.5-1.37c1.81.55,2.81-4.06,3.31-5.31s-3.61-9.63-5.22-11.83-3.11-17.51-3.11-17.51,4.24,9.42,4.5,13.72,3.56,5.6,6.74,12a23.31,23.31,0,0,1,1.2,2.88C1728.62,667.68,1727,671.86,1724.3,671Z" transform="translate(-962.87 -369.16)"/><path class="cls-14" d="M1717,668.81a1.58,1.58,0,0,1-2.21,1.54l-.22-.08h0a3.24,3.24,0,0,1-2-2.8Z" transform="translate(-962.87 -369.16)"/><path class="cls-15" d="M1716.54,668.67a1.56,1.56,0,0,1-2,1.6h0a3.24,3.24,0,0,1-2-2.8Z" transform="translate(-962.87 -369.16)"/><path class="cls-16" d="M1676.85,544.89l-4.58-1.4V744l.11,0,.21.06.26.08.08,0,.21.07,2,.62,4.35,1.34,9.55,3,4.11,1.28,1.89.58,7.87,2.44,3.89,1.21,7.73,2.39h0l2.31.72,3,.93.65.2h0l7,2.16,3.2,1,3.44,1.07,10.17,3.15.23.07,2,.62,1.23.38,1.79.55.18.06V567.17Zm18.57,68.63s1.55-31.09,17-31.09c11.7,0,18.1,17.71,20.54,33.57h0a96.31,96.31,0,0,1,1.16,14.2c0,4.58,0,16.67,0,31.78v6.94c0,11.46,0,24.15,0,36.41l-12.87,4-4.86,1.51-3.78,1.18-17.51-5.13.08-25.81,0-7Z" transform="translate(-962.87 -369.16)"/><path class="cls-11" d="M1721.28,709.35l12.87-4c0,4.42,0,8.78,0,13V725c0,18.41,0,33.2,0,37.1v1h0l-3.44-1.06-10.19-3.12h0l-.65-.2-3-.92-10-3.09-3.89-1.19-7.87-2.42v-.45l0-14.89h0l0-18.24,0-4.37v-6.22l17.51,5.13,3.78-1.18Z" transform="translate(-962.87 -369.16)"/><path class="cls-5" d="M1744.6,728.18s.54.75,4.91,0v54.58a6,6,0,0,1-5.32.12C1744.19,771.23,1744.6,728.18,1744.6,728.18Z" transform="translate(-962.87 -369.16)"/><path class="cls-5" d="M1744.21,779.77s.6-.11,3.51,2.94V726.92s-1.19-1.76-2.49-1.76C1745.23,733.59,1744.21,779.77,1744.21,779.77Z" transform="translate(-962.87 -369.16)"/><path class="cls-5" d="M1675.06,761.13s.56-.52,4.39,1.14v-55.6a4.69,4.69,0,0,0-4.26-.74C1675.19,716.46,1675.06,761.13,1675.06,761.13Z" transform="translate(-962.87 -369.16)"/><path class="cls-5" d="M1688.89,764.84s.56-.43,4.22,1.5V710.7a4.39,4.39,0,0,0-3.91-.94C1689.2,719.87,1688.89,764.84,1688.89,764.84Z" transform="translate(-962.87 -369.16)"/><path class="cls-5" d="M1702.72,768.56s.57-.35,4,1.86V714.74a4.14,4.14,0,0,0-3.56-1.14C1703.2,723.29,1702.72,768.56,1702.72,768.56Z" transform="translate(-962.87 -369.16)"/><path class="cls-5" d="M1716.6,772.34s.58-.28,3.87,2.22V718.84s-1.51-1.69-3.21-1.35C1717.26,726.76,1716.6,772.34,1716.6,772.34Z" transform="translate(-962.87 -369.16)"/><path class="cls-5" d="M1730.41,776.05s.58-.19,3.69,2.59V722.88s-1.35-1.73-2.85-1.56C1731.25,730.18,1730.41,776.05,1730.41,776.05Z" transform="translate(-962.87 -369.16)"/><path class="cls-6" d="M1755.75,726.39c-.31.94-3.14,1.38-6.06,1.6-.63,0-1.26.08-1.87.1h-.1c-.91,0-1.78.07-2.52.08h-.6l-4.28-1.3-6.18-1.88h0l-2.34-.72-.53-.16-10.76-3.27-3.22-1-10.49-3.19-3.57-1.09-1-.29-7.09-2.16-1.37-.42-.64-.19-3.92-1.19-.37-.12-9.37-2.85-4.26-1.3-2.92-.88-6-1.84-.4-.12-4.62-1.41-.08,0-8.86-2.69-1.41-.43-3.57-1.08-6.09-1.86h0l-.59-.18c-7.59-2.3-7.31-2.32.38-4.23a7.88,7.88,0,0,1,4.36,0l5.52,1.62,1.7.5h0l8.51,2.49,5.15,1.51,6,1.77,16.52,4.84,5,1.45,1.38.41,17.51,5.13,21.5,6.3,8.58,2.51.42.12,6.55,1.92,1.6.47C1754.83,724.71,1756,725.68,1755.75,726.39Z" transform="translate(-962.87 -369.16)"/><path class="cls-6" d="M1852.51,699.09h0c-.43.15-.9.29-1.39.43a52.35,52.35,0,0,0-6.47,1.57l-1.92.54-1.19.33c-3,.85-6.53,1.88-10.48,3l-.18,0-2.29.68-1.2.35-3,.87-6.93,2-.11,0-3.74,1.1-.28.08-9.59,2.83-.43.12-3.77,1.11-8.32,2.42-1.09.31-4.38,1.26c-3.15.9-6.23,1.78-9.21,2.61l-4.56,1.27-3.64,1-5.33,1.42c-.2.05-.39.11-.59.15-1.45.39-2.84.74-4.15,1.07l-2.54.63c-2.32.56-4.36,1-6.06,1.35-.68.14-1.3.25-1.87.35h-.1a17.65,17.65,0,0,1-2.52.28h-.15a3,3,0,0,1-.45,0,1.14,1.14,0,0,1-.41-.11,17.21,17.21,0,0,1-3.87-1.37c-3.52-1.83-2.65-4.2,2.82-5.91l.79-.23a31.89,31.89,0,0,0,4-.89l1.81-.48c4.39-1.2,11-3.08,18.67-5.32l8.25-2.39c8.43-2.45,17.67-5.14,26.68-7.71,3.47-1,6.9-2,10.23-2.91l4-1.1c2.38-.67,4.7-1.31,6.93-1.92l2.8-.75,3.65-1c2-.54,4-1,5.78-1.5h0l3.2-.79c3.82-.92,6.85-1.56,8.82-1.84a5.53,5.53,0,0,1,2.42,0c2.84.8,4.62,1.73,5.33,2.7h0C1857.52,696.28,1856.21,697.82,1852.51,699.09Z" transform="translate(-962.87 -369.16)"/><path class="cls-17" d="M1748.38,485.74l-82.16-24.12a4.43,4.43,0,0,1,.24-8.65l82-19.71a5,5,0,0,1,2.52,0l81.36,21.92a4.43,4.43,0,0,1,0,8.66l-81.23,21.89A5.17,5.17,0,0,1,1748.38,485.74Z" transform="translate(-962.87 -369.16)"/><path class="cls-6" d="M1749.07,564.78l-86.28-26.24a4,4,0,0,1,.22-7.84l86.16-21.45a4.32,4.32,0,0,1,2.2,0l85.44,23.86a4,4,0,0,1,0,7.84l-85.32,23.83A4.33,4.33,0,0,1,1749.07,564.78Z" transform="translate(-962.87 -369.16)"/><path class="cls-3" d="M1750.21,557.13l-101.5-30.87,22.64-5.64,100.49,29.44-21.49,7.07Z" transform="translate(-962.87 -369.16)"/><polygon class="cls-6" points="786.9 187.99 765.53 181.38 864.95 153.73 886.91 159.9 786.9 187.99"/><path class="cls-3" d="M1750.19,558.24l-99.77-30.34,22.26-5.54,98.78,28.93-21.12,7Z" transform="translate(-962.87 -369.16)"/><polygon class="cls-18" points="786.89 189.1 765.88 182.6 863.61 155.43 885.2 161.5 786.89 189.1"/><path class="cls-3" d="M1750.18,559.36l-98-29.82,21.87-5.45,97.06,28.44-20.75,6.82Z" transform="translate(-962.87 -369.16)"/><polygon class="cls-19" points="786.89 190.22 766.24 183.83 862.27 157.12 883.49 163.09 786.89 190.22"/><path class="cls-3" d="M1750.16,560.47l-96.31-29.29,21.48-5.35,95.36,27.93-20.39,6.71Z" transform="translate(-962.87 -369.16)"/><polygon class="cls-20" points="786.88 191.33 766.59 185.06 860.93 158.82 881.77 164.68 786.88 191.33"/><path class="cls-3" d="M1750.14,561.58l-94.57-28.76,21.09-5.25L1770.3,555l-20,6.58Z" transform="translate(-962.87 -369.16)"/><polygon class="cls-21" points="786.87 192.44 766.95 186.28 859.59 160.52 880.06 166.27 786.87 192.44"/><path class="cls-3" d="M1750.13,562.7l-92.85-28.24L1678,529.3l91.93,26.93-19.66,6.47Z" transform="translate(-962.87 -369.16)"/><polygon class="cls-22" points="786.86 193.56 767.3 187.51 858.25 162.22 878.34 167.87 786.86 193.56"/><path class="cls-3" d="M1750.11,563.81,1659,536.1l20.33-5.06,90.21,26.43-19.29,6.34Z" transform="translate(-962.87 -369.16)"/><polygon class="cls-23" points="786.85 194.67 767.66 188.73 856.91 163.91 876.63 169.46 786.85 194.67"/><path class="cls-3" d="M1750.09,564.92l-89.38-27.18,19.94-5,88.5,25.93-18.93,6.22Z" transform="translate(-962.87 -369.16)"/><polygon class="cls-24" points="786.84 195.79 768.02 189.96 855.58 165.61 874.92 171.05 786.84 195.79"/><path class="cls-3" d="M1750.08,566l-87.66-26.66,19.55-4.87,86.79,25.43L1750.2,566Z" transform="translate(-962.87 -369.16)"/><polygon class="cls-25" points="786.83 196.9 768.37 191.19 854.24 167.31 873.2 172.64 786.83 196.9"/><path class="cls-3" d="M1750.06,567.15,1664.14,541l19.16-4.77,85.08,24.92-18.2,6Z" transform="translate(-962.87 -369.16)"/><polygon class="cls-26" points="786.82 198.01 768.73 192.41 852.9 169.01 871.49 174.23 786.82 198.01"/><polygon class="cls-6" points="887.48 159.88 873.24 163.79 866.45 165.65 854.98 161.83 845.07 158.53 830.98 153.85 814.24 148.28 796.11 142.25 788.65 139.76 787.31 139.32 765.86 132.18 765.85 132.18 765.53 132.07 786.9 125.46 787.14 125.54 788.65 126.06 808.26 132.77 814.52 134.91 830.98 140.54 854.19 148.49 854.98 148.76 887.48 159.88"/><path class="cls-16" d="M1751.36,485.71h0L1677,460.91l-.12,3.83V465l-1.67,53-.12,3.7,1.79.52,9.26,2.72,5.85,1.71,59.56,17.45V485.77Zm-27.51,17.14L1707.23,508l.2-10.89s.66-8,7.23-8,9.19,8,9.19,11.1Z" transform="translate(-962.87 -369.16)"/><path class="cls-27" d="M1814.76,458.65h0l-30.16,8.73-.09,0-33,9.55v67.15l56.42-16.42,4.59-1.33,4.53-1.32V458Zm-37.37,45.42c0-1.36,0-2.37,0-2.85,0-3.08,2.63-11.1,9.2-11.1s7.22,8,7.22,8V509.7Z" transform="translate(-962.87 -369.16)"/><path class="cls-11" d="M1723.85,502.85v26.27L1706.94,524l0-2,0-2.23.21-11.71Z" transform="translate(-962.87 -369.16)"/><path class="cls-11" d="M1793.85,509.7v14.72l-17,4.7s.12-5.51.26-11.68l0-1c.1-4.58.2-9.37.25-12.41Z" transform="translate(-962.87 -369.16)"/><path class="cls-3" d="M1750.21,423.29l-101.5,31.61,22.58,6.87,100.55-31.41-21.48-7.07Z" transform="translate(-962.87 -369.16)"/><path class="cls-3" d="M1750.21,485.78l-101.5-30.88,22.64-5.63,100.49,29.44-21.49,7.06Z" transform="translate(-962.87 -369.16)"/><polygon class="cls-26" points="786.9 116.64 765.53 110.02 864.95 82.38 886.91 88.55 786.9 116.64"/><polygon class="cls-28" points="786.9 54.11 765.53 60.72 866.45 94.3 887.48 88.53 786.9 54.11"/><path class="cls-3" d="M1750.19,426l-98.5,30.68,21.91,6.67,97.58-30.49L1750.33,426Z" transform="translate(-962.87 -369.16)"/><path class="cls-3" d="M1750.19,486.62l-98.5-30,22-5.47,97.52,28.57-20.85,6.86Z" transform="translate(-962.87 -369.16)"/><polygon class="cls-26" points="786.89 117.48 766.15 111.06 862.64 84.23 883.95 90.22 786.89 117.48"/><polygon class="cls-29" points="786.89 56.8 766.15 63.22 864.09 95.8 884.5 90.21 786.89 56.8"/><path class="cls-3" d="M1750.16,428.67l-95.5,29.75,21.25,6.46,94.61-29.56-20.22-6.65Z" transform="translate(-962.87 -369.16)"/><path class="cls-3" d="M1750.16,487.46l-95.5-29,21.3-5.31,94.56,27.7-20.22,6.65Z" transform="translate(-962.87 -369.16)"/><polygon class="cls-26" points="786.88 118.33 766.77 112.1 860.32 86.09 880.98 91.9 786.88 118.33"/><polygon class="cls-30" points="786.88 59.49 766.77 65.71 861.73 97.31 881.52 91.88 786.88 59.49"/><path class="cls-3" d="M1750.14,431.36l-92.5,28.81,20.58,6.26,91.64-28.63-19.59-6.44Z" transform="translate(-962.87 -369.16)"/><path class="cls-3" d="M1750.14,488.31l-92.5-28.14,20.63-5.14,91.59,26.84-19.59,6.43Z" transform="translate(-962.87 -369.16)"/><polygon class="cls-26" points="786.87 119.17 767.39 113.14 858 87.94 878.02 93.57 786.87 119.17"/><polygon class="cls-31" points="786.87 62.18 767.39 68.21 859.37 98.81 878.54 93.55 786.87 62.18"/><path class="cls-3" d="M1750.12,434.05l-89.51,27.88,19.92,6.05,88.67-27.7-19-6.23Z" transform="translate(-962.87 -369.16)"/><path class="cls-3" d="M1750.12,489.15l-89.51-27.22,20-5,88.62,26-19,6.23Z" transform="translate(-962.87 -369.16)"/><polygon class="cls-26" points="786.86 120.01 768.01 114.18 855.69 89.8 875.06 95.24 786.86 120.01"/><polygon class="cls-32" points="786.86 64.87 768.01 70.7 857.01 100.31 875.55 95.23 786.86 64.87"/><path class="cls-3" d="M1750.09,436.74l-86.5,26.94,19.25,5.86,85.69-26.78-18.31-6Z" transform="translate(-962.87 -369.16)"/><path class="cls-3" d="M1750.09,490l-86.5-26.31,19.29-4.8L1768.53,484l-18.31,6Z" transform="translate(-962.87 -369.16)"/><polygon class="cls-26" points="786.85 120.85 768.64 115.22 853.37 91.65 872.09 96.92 786.85 120.85"/><polygon class="cls-33" points="786.85 67.56 768.64 73.2 854.65 101.81 872.57 96.9 786.85 67.56"/><path class="cls-3" d="M1750.07,439.43l-83.5,26,18.57,5.65,82.73-25.85-17.68-5.81Z" transform="translate(-962.87 -369.16)"/><path class="cls-3" d="M1750.07,490.84l-83.5-25.4,18.62-4.64L1767.87,485l-17.68,5.82Z" transform="translate(-962.87 -369.16)"/><polygon class="cls-26" points="786.85 121.7 769.26 116.25 851.06 93.51 869.13 98.59 786.85 121.7"/><polygon class="cls-34" points="786.85 70.25 769.26 75.69 852.29 103.32 869.59 98.57 786.85 70.25"/><path class="cls-3" d="M1750.05,442.12l-80.51,25.07,17.91,5.45,79.76-24.92-17-5.6Z" transform="translate(-962.87 -369.16)"/><path class="cls-3" d="M1750.05,491.68l-80.51-24.49,18-4.47,79.71,23.36-17,5.6Z" transform="translate(-962.87 -369.16)"/><polygon class="cls-26" points="786.84 122.54 769.88 117.29 848.74 95.36 866.16 100.26 786.84 122.54"/><polygon class="cls-35" points="786.84 72.94 769.88 78.19 849.93 104.82 866.61 100.25 786.84 72.94"/><path class="cls-3" d="M1750,444.81,1672.52,469l17.24,5.24,76.79-24-16.41-5.39Z" transform="translate(-962.87 -369.16)"/><path class="cls-3" d="M1750,492.52,1672.52,469l17.29-4.3,76.74,22.48-16.41,5.39Z" transform="translate(-962.87 -369.16)"/><polygon class="cls-26" points="786.83 123.38 770.5 118.33 846.43 97.22 863.2 101.93 786.83 123.38"/><polygon class="cls-26" points="786.83 75.63 770.5 80.68 847.57 106.32 863.63 101.92 786.83 75.63"/><polygon class="cls-36" points="786.81 107.14 707.97 84.04 786.81 59.4 867.46 86.54 786.81 107.14"/><path class="cls-37" d="M1772.55,464s-51.17,7-53.8-9.78c3.14-18.71,23.13-46.14,24.8-48.43s3-6.55,5-6.86,5.72,4.17,6.86,5S1794,437.33,1795,443.26,1786.07,459.83,1772.55,464Z" transform="translate(-962.87 -369.16)"/><path class="cls-38" d="M1748.25,470s-44.88-6.69-43.48-23.88c7.92-17.67,35.67-39.84,38-41.69s4.79-5.72,6.94-5.54,5,5.49,6,6.59,32.26,42.3,31.76,48.36S1763.46,469.23,1748.25,470Z" transform="translate(-962.87 -369.16)"/><path class="cls-39" d="M1857.77,751.76s-81.12,83.66-79.29,109.34,79.29,62.06,79.29,62.06Z" transform="translate(-962.87 -369.16)"/><path class="cls-40" d="M1749.69,403l-3.94-1.67V387.83h-7.58V380h7.45V369.16h6.27l.21,10.82h7.41v8h-7.41v13.42l-1.21,1.39A1.06,1.06,0,0,1,1749.69,403Z" transform="translate(-962.87 -369.16)"/><path class="cls-41" d="M1749.7,402.87l-2.24-1.5V387.83h-7.58V380h7.45V369.16h6.27l.21,10.82h7.4v8h-7.4v13.42l-2.7,1.55A1.33,1.33,0,0,1,1749.7,402.87Z" transform="translate(-962.87 -369.16)"/><path class="cls-2" d="M1920,912.21V932l-14-5.94-.14,0-48-20.32-1.41-.59h0l-51.86-21.92-15.38-6.5-3.72-1.58h0L1714.28,845l-3.2-1.35-64.25-27.16-22.26-29.27-2.56-3.36-6.33-8.32-9.12-12-4.1-5.39-4.38-5.76,15.76-4.52,8.08-2.33,2.11-.6,7.82-2.25.44-.12,1.42-.41,1.57-.45,3.41-1,8.74-2.51,2.68-.77,2.15-.62,9-2.57,4.59-1.32,6.45-1.85,2.87-.82,4.31-1.24,9.68-2.78,4-1.14,2-.57.84-.24,7.15,8.33.39.45,2.79,3.26.51.59,10.16,11.83,3.55,4.14,5.92,6.89h0l1,1.21h0l0,0,3.15,3.67,3.49,4.06,4.25,5,5.84,6.81h0l1.88,2.18.36.42.19.22,43.16,50.27,36.46,42.47,31.53,12.13Z" transform="translate(-962.87 -369.16)"/><polygon class="cls-42" points="957.13 551.94 957.13 571.84 894.9 545.53 841.83 523.1 841.82 523.1 830.11 518.15 751.41 484.88 744.62 482.01 744.61 482.01 735.62 478.2 681.15 455.18 661.59 429.47 659.17 426.29 653.65 419.03 636.24 396.14 632.4 391.09 639.59 389.03 651.43 385.63 659.06 383.43 661.33 382.78 668.98 380.58 672.18 379.66 673.73 379.22 675.54 378.7 675.82 378.62 684.59 376.1 689.39 374.72 694.11 373.37 698.37 372.14 699.32 371.87 702.95 370.83 709.4 368.98 712.26 368.15 716.58 366.91 726.22 364.14 730.24 362.99 732.18 365.25 733.08 366.3 734.79 368.29 740.1 374.48 743.89 378.89 750.81 386.95 751.62 387.9 751.63 387.9 751.64 387.92 753.91 390.56 757.6 394.86 767.55 406.44 767.55 406.45 768.07 407.06 770.85 410.3 822.98 471.02 860.55 514.79 894.9 528 957.13 551.94"/><path class="cls-2" d="M1920,931.27V1080H1552.86V778.59s21.17-7.25,46.25-13.29c2.45-.59,4.94-1.17,7.45-1.72q4.08-.92,8.21-1.74c2.39-.48,4.79-.93,7.18-1.35l.56-.1h0l1.82-.31q3.78-.63,7.49-1.14c5.15-.71,10.16-1.21,14.88-1.44h.2c2.5-.13,4.93-.17,7.25-.12h.21c1.62,0,3.18.1,4.69.23a41.71,41.71,0,0,1,5.79.93h.06a75.14,75.14,0,0,1,9.46,2.88l0,0c30.86,11.46,78.6,46.4,108.27,84.65h0a169,169,0,0,1,16.15,24.7h0a111.5,111.5,0,0,1,5.62,12.38c.69,1.82,1.31,3.62,1.86,5.42,10.22,4,30.66,11.74,51.42,19.52,17.88,6.69,36,13.43,48,17.9l.14,0Z" transform="translate(-962.87 -369.16)"/><path class="cls-16" d="M1920,931.27V941l-3.66,2s-27.61-10.86-58.57-23.49c-10-4.09-20.4-8.37-30.31-12.53h0c-12.25-5.14-23.79-10.09-33-14.27-.41-1.82-.88-3.63-1.41-5.41-.64-2.19-1.37-4.34-2.18-6.47h0c-.53-1.4-1.09-2.79-1.69-4.16a108.34,108.34,0,0,0-9.76-17.53l-.74-1.08c-36.54-52.55-119-84.86-146.76-94.56-3.34-1.17-5.89-2-7.47-2.52l-1.87-.59h0c.14,0,.74-.2,1.82-.44,1.53-.33,4-.81,7.49-1.27,3.79-.49,8.75-1,14.88-1.18h.2c2.26-.08,4.67-.12,7.25-.12h.21c1.62,0,3.18.1,4.69.23a41.71,41.71,0,0,1,5.79.93h.06a75.14,75.14,0,0,1,9.46,2.88l0,0c30.86,11.46,78.6,46.4,108.27,84.65h0a169,169,0,0,1,16.15,24.7h0a111.5,111.5,0,0,1,5.62,12.38c.69,1.82,1.31,3.62,1.86,5.42,10.22,4,30.66,11.74,51.42,19.52,17.88,6.69,36,13.43,48,17.9l.14,0Z" transform="translate(-962.87 -369.16)"/><polygon class="cls-43" points="166.69 413.42 324.98 367.96 324.98 506.69 169.26 522.96 166.69 413.42"/><path class="cls-44" d="M1185.61,683.32s41.24,47.8,102.24,53.8,153.38,14,204.19,6,98.81-15,129.81-64c0,59,.25,133.52.25,133.52s9.75,105.48-66.25,109.48-233,43-244,39-121.47-104.54-126.24-110.87S1185.61,683.32,1185.61,683.32Z" transform="translate(-962.87 -369.16)"/><path class="cls-45" d="M1389.85,486.12V459.67s15.9,6.56,27,0v26.45h-27Z" transform="translate(-962.87 -369.16)"/><path class="cls-46" d="M1389.85,459.67s13-10.55,27,0C1401.9,469.57,1389.85,459.67,1389.85,459.67Z" transform="translate(-962.87 -369.16)"/><path class="cls-40" d="M1402.62,462.6l-6.92-2.93V435.9h-13.3V422.15h13.07v-19h11l.38,19h13v14h-13v23.55l-2.12,2.44A1.85,1.85,0,0,1,1402.62,462.6Z" transform="translate(-962.87 -369.16)"/><path class="cls-41" d="M1402.64,462.31l-3.94-2.64V435.9h-13.3V422.15h13.07v-19h11l.38,19h13v14h-13v23.55l-4.74,2.73A2.34,2.34,0,0,1,1402.64,462.31Z" transform="translate(-962.87 -369.16)"/><path class="cls-47" d="M1389.85,459.67s4.28,19.16,10.59,26.06-10.59,3.61-10.59,3.61Z" transform="translate(-962.87 -369.16)"/><path class="cls-45" d="M1187.85,679.12s29,54,151,67c125,2,228.5,4,283.25-67-10.5-30-86.75-200.5-212.75-200.5S1199.35,566.62,1187.85,679.12Z" transform="translate(-962.87 -369.16)"/><path class="cls-47" d="M1409.35,478.62s-191.25,201.32,212.5,200.5c-21,36-45.75,67.66-216.88,67.66s-202.12-37.66-217.12-67.66S1231.85,479.12,1409.35,478.62Z" transform="translate(-962.87 -369.16)"/><path class="cls-48" d="M1331.85,892.12l42.61,5.36v-86.9s-2-17.2-21.31-17.2-21.3,9.63-21.3,9.63Z" transform="translate(-962.87 -369.16)"/><path class="cls-48" d="M1518.85,882.12l34-8V799s1-21.62-17-15.25-17,22-17,22Z" transform="translate(-962.87 -369.16)"/><path class="cls-49" d="M1621.85,679.12s-217.33,309.11-265,325c-15,5,203-70.57,240-89S1623.85,750.12,1621.85,679.12Z" transform="translate(-962.87 -369.16)"/><polygon class="cls-50" points="751.41 473.59 359.98 587.96 352.98 599.96 751.41 479.96 751.41 473.59"/><polygon class="cls-51" points="751.41 479.96 751.41 664.07 671.76 690.85 665.44 692.98 612.34 710.84 352.98 710.84 352.98 599.96 411.5 582.33 411.51 582.33 465.18 566.17 589.99 528.58 650.05 510.49 650.06 510.49 654.26 509.22 659.56 507.62 744.61 482.01 744.62 482.01 751.41 479.96"/><polygon class="cls-51" points="359.98 587.96 175.64 413.42 166.69 413.42 352.98 599.96 359.98 587.96"/><polygon class="cls-43" points="352.98 599.96 352.98 710.84 253.75 710.84 171.98 638.96 169.26 522.96 168.94 509.29 166.69 413.42 171.29 418.02 221.15 467.95 265.99 512.85 334.6 581.56 334.62 581.58 352.98 599.96"/><path class="cls-48" d="M1217.85,832.12l17,17V775.19s-1-19.07-7-25.07-10,11.62-10,11.62Z" transform="translate(-962.87 -369.16)"/><polygon class="cls-51" points="166.69 413.42 220.92 397.85 220.92 403.13 171.29 418.02 166.69 413.42"/><path class="cls-52" d="M1772.48,1080H1438.57c21.44-26.46,56.78-64.06,97.28-83.13a141.86,141.86,0,0,1,17-6.75c27.05-8.69,50.05-11,68.35-10.53h.31q4.05.12,7.78.42c23.67,1.83,37.89,8.29,40.93,9.79l.26.13.35.18,43.44,38.41Z" transform="translate(-962.87 -369.16)"/><path class="cls-2" d="M1714.28,1028.53l58.2,51.47h-124.1c-4.26-4-8.68-8.07-13.22-12q-3.39-3-6.85-5.85c-27.41-23-57.29-43.09-75.45-54.71-10.44-6.68-17-10.56-17-10.56,5.85-2.33,11.52-4.37,17-6.16,27.29-8.89,50.2-11.47,68.35-11.12h.31q4.05.07,7.78.35c24.72,1.74,38.86,8.74,41.19,10l.35.18Z" transform="translate(-962.87 -369.16)"/><path class="cls-53" d="M1303.39,1080H1156.7l-70-193.5,28.17-3.28s6.75-2.14,16.89-4.77c20.07-5.21,53.44-12.37,74-8.74a33.62,33.62,0,0,1,9.76,3.1c2.1,1.67,4.65,5.05,7.55,9.8,1.13,1.86,2.32,3.94,3.55,6.2a0,0,0,0,1,0,0C1249.75,931.07,1289,1039.47,1303.39,1080Z" transform="translate(-962.87 -369.16)"/><polygon class="cls-24" points="193.83 710.84 177.7 710.84 106.51 508.26 119.46 505.11 123.88 517.34 193.83 710.84"/><polygon class="cls-54" points="177.7 710.84 65.18 710.84 52.5 708.25 55.25 669.93 62.13 573.86 106.51 508.26 177.7 710.84"/><path class="cls-24" d="M1099.48,1080H962.87c16.8-13.47,37-28.12,55.25-40.91,27.87-19.53,51.26-34.73,51.26-34.73C1078.09,1016.23,1090.39,1051.45,1099.48,1080Z" transform="translate(-962.87 -369.16)"/></g></g></svg>